{"title":"Ghosthunters 2016 Movies BRRip XviD AAC New Source +Sample ☻rDX☻","uid":15613859,"size":739650195,"categoryP":"video","categoryS":"movies","magnet":"?xt=urn:btih:b79b0cc8d6eda8c45c64e45fbe229fe4eb0aa2a0&amp;dn=Ghosthunters+2016+Movies+BRRip+XviD+AAC+New+Source+%2BSample+%E2%98%BBrDX%E2%98%BB&amp;tr=udp%3A%2F%2Ftracker.leechers-paradise.org%3A6969&amp;tr=udp%3A%2F%2Fzer0day.ch%3A1337&amp;tr=udp%3A%2F%2Fopen.demonii.com%3A1337&amp;tr=udp%3A%2F%2Ftracker.coppersurfer.tk%3A6969&amp;tr=udp%3A%2F%2Fexodus.desync.com%3A6969","seeders":1,"leechers":1,"uploader":"basicssom","files":2,"time":1471811449,"description":"----------------------------------------------------------------\r\nGhosthunters 2016 English Movies BRRip XviD AAC New Source with Sample ☻rDX☻\r\n\r\nSCREEN SHOTS &amp; POSTER:\r\n  \nhttp://postimage.co.nr/2016/8/buck/index.htm  \nhttp://postimage.co.nr/2016/8/buck/1.html  \nhttp://postimage.co.nr/2016/8/buck/2.html  \nhttp://postimage.co.nr/2016/8/buck/3.html  \nhttp://postimage.co.nr/2016/8/buck/4.html  \nhttp://postimage.co.nr/2016/8/buck/5.html  \nhttp://postimage.co.nr/2016/8/buck/6.html  \nhttp://postimage.co.nr/2016/8/buck/7.html  \nhttp://postimage.co.nr/2016/8/buck/8.html  \nhttp://postimage.co.nr/2016/8/buck/9.html  \nhttp://postimage.co.nr/2016/8/buck/10.html\r\n\r\nFormat                                   : Matroska\r\nFormat version                           : Version 4 / Version 2\r\nFile size                                : 699 MiB\r\nDuration                                 : 1 h 29 min\r\nOverall bit rate mode                    : Constant\r\nOverall bit rate                         : 1 088 kb/s\r\nMovie name                               : Ghosthunters 2016 English Movies BRRip XviD AAC New Source ☻rDX☻\r\n\r\nVideo\r\nID                                       : 2\r\nFormat                                   : AVC\r\nFormat/Info                              : Advanced Video Codec\r\nFormat profile                           :   \r\nFormat settings, CABAC                   : Yes\r\nFormat settings, ReFrames                : 2 frames\r\nFormat settings, GOP                     : M=1, N=12\r\nCodec ID                                 : V_MPEG4/ISO/AVC\r\nDuration                                 : 1 h 29 min\r\nBit rate mode                            : Constant\r\nBit rate                                 : 641 kb/s\r\nWidth                                    : 720 pixels\r\nHeight                                   : 400 pixels\r\nDisplay aspect ratio                     : 16:9\r\nFrame rate mode                          : Constant\r\nFrame rate                               : 23.976 (24000/1001) FPS\r\nColor space                              : YUV\r\nChroma subsampling                       : 4:2:0\r\nBit depth                                : 8 bits\r\nScan type                                : Progressive\r\nBits/(Pixel*Frame)                       : 0.093\r\nStream size                              : 397 MiB (57%)\r\nTitle                                    : ☻rDX☻\r\nDefault                                  : Yes\r\nForced                                   : No\r\n\r\nAudio\r\nID                                       : 1\r\nFormat                                   : AC-3\r\nFormat/Info                              : Audio Coding 3\r\nMode extension                           : CM (complete main)\r\nFormat settings, Endianness              : Big\r\nCodec ID                                 : A_AC3\r\nDuration                                 : 1 h 29 min\r\nBit rate mode                            : Constant\r\nBit rate                                 : 448 kb/s\r\nChannel(s)                               : 6 channels\r\nChannel positions                        : Front: L C R, Side: L R, LFE\r\nSampling rate                            : 48.0 kHz\r\nFrame rate                               : 31.250 FPS (1536 spf)\r\nCompression mode                         : Lossy\r\nStream size                              : 288 MiB (41%)\r\nTitle                                    : ☻rDX☻\r\nDefault                                  : Yes\r\nForced                                   : No\r\n\r\nIMDB \nhttp://www.imdb.com/title/tt5725894/","torrent":{"xt":"urn:btih:b79b0cc8d6eda8c45c64e45fbe229fe4eb0aa2a0","amp;dn":"Ghosthunters+2016+Movies+BRRip+XviD+AAC+New+Source+%2BSample+%E2%98%BBrDX%E2%98%BB","amp;tr":["udp%3A%2F%2Ftracker.leechers-paradise.org%3A6969","udp%3A%2F%2Fzer0day.ch%3A1337","udp%3A%2F%2Fopen.demonii.com%3A1337","udp%3A%2F%2Ftracker.coppersurfer.tk%3A6969","udp%3A%2F%2Fexodus.desync.com%3A6969"],"infoHash":"b79b0cc8d6eda8c45c64e45fbe229fe4eb0aa2a0","infoHashBuffer":{"type":"Buffer","data":[183,155,12,200,214,237,168,196,92,100,228,95,190,34,159,228,235,10,162,160]},"announce":[],"urlList":[]}}